# xmcd
#
# Track frame offsets: 
#        150
#        12329
#        22620
#        34034
#        42775
#        51436
#        61637
#        75131
#        84433
#        94289
#        102759
#        113596
#        123259
#        132537
#        144104
#        154488
#        164020
#        176854
#        187318
#        198885
#        211170
#        224149
#        234987
#        245937
#        257338
#        267707
#        278687
#        289170
#        300047
#        312560
#        322289
#        335600
#        344206
#
# Disc length: 4724 seconds
#
# Revision: 0
# Processed by: cddbd v1.5.2PL0 Copyright (c) Steve Scherf et al.
# Submitted via: ExactAudioCopy v0.95b3
#
DISCID=e9127221
DTITLE=Harry Nilsson  - HARRYties - Disc 1 - Spotlight On New Nilsson 
DTITLE=(Upgrade)
DYEAR=1900
DGENRE=
TTITLE0=Donna (I Understand)
TTITLE1=Wig Job
TTITLE2=Stand Up And Holler
TTITLE3=Baa Baa Blacksheep
TTITLE4=Do You Wanna (Have Some Fun)
TTITLE5=Groovy Little Suzie
TTITLE6=Donna (I Understand)
TTITLE7=Wig Job
TTITLE8=The Path That Leads To Trouble
TTITLE9=Good Times
TTITLE10=So You Think You've Got Troubles
TTITLE11=I'm Gonna Lose My Mind
TTITLE12=She's Yours
TTITLE13=Sixteen Tons
TTITLE14=Born In Grenada
TTITLE15=You Can't Take Your Love
TTITLE16=Growin'Up
TTITLE17=Do You Believe
TTITLE18=Sixteen Tons (A Capella Bonus Track)
TTITLE19=1941
TTITLE20=A Boy From The City
TTITLE21=The La La Song
TTITLE22=Hey Little Girl
TTITLE23=Wonderful Summer
TTITLE24=There Will Never Be
TTITLE25=Don't Say Goodbye
TTITLE26=Without Her
TTITLE27=The Story Of Rock And Roll
TTITLE28=Paradise
TTITLE29=Countin'
TTITLE30=Little More Rain
TTITLE31=Good Times
TTITLE32=hidden Track
EXTD=
EXTT0=
EXTT1=
EXTT2=
EXTT3=
EXTT4=
EXTT5=
EXTT6=
EXTT7=
EXTT8=
EXTT9=
EXTT10=
EXTT11=
EXTT12=
EXTT13=
EXTT14=
EXTT15=
EXTT16=
EXTT17=
EXTT18=
EXTT19=
EXTT20=
EXTT21=
EXTT22=
EXTT23=
EXTT24=
EXTT25=
EXTT26=
EXTT27=
EXTT28=
EXTT29=
EXTT30=
EXTT31=
EXTT32=
PLAYORDER=
